<svg width="25" height="24" fill="none" xmlns="http://www.w3.org/2000/svg"><path d="M20.402 5.322a1.044 1.044 0 0 1 .916.561 1.03 1.03 0 0 1-.074 1.068l-1.048 1.481c-.065 5.086-1.776 8.539-5.086 10.264-1.578.78-3.32 1.17-5.082 1.139-2.178.05-4.33-.476-6.236-1.524a.76.76 0 0 1-.32-.8.767.767 0 0 1 .635-.6 20.817 20.817 0 0 0 3.767-.886C2.384 13.5 3.58 7.824 4.104 6.081a1.027 1.027 0 0 1 .747-.71 1.04 1.04 0 0 1 .992.288 10.012 10.012 0 0 0 6.03 2.95 4.166 4.166 0 0 1 7.032-3.289l1.497.002ZM4.919 17.794c1.873.872 6.263 1.819 9.724.016 2.973-1.549 4.502-4.732 4.548-9.461a.768.768 0 0 1 .143-.436l1.087-1.538-.041-.053c-.521-.007-1.035-.014-1.56 0a.843.843 0 0 1-.55-.221 3.157 3.157 0 0 0-4.408-.072 3.172 3.172 0 0 0-.94 2.87.642.642 0 0 1-.156.545.594.594 0 0 1-.519.205 11.016 11.016 0 0 1-7.126-3.295c-.673 2.078-1.529 7.094 3.892 9.065a.636.636 0 0 1 .356.882.626.626 0 0 1-.24.256 13.314 13.314 0 0 1-4.21 1.237Z" fill="#fff"/></svg>