<svg width="19" height="18" fill="none" xmlns="http://www.w3.org/2000/svg"><path d="M15.137 15.75c-1.622 0-3.203-.36-4.743-1.079a14.369 14.369 0 0 1-6.959-6.918C2.712 6.222 2.35 4.65 2.35 3.038a.77.77 0 0 1 .792-.788h3.056c.176 0 .333.056.471.169.138.112.22.256.245.431l.49 2.625c.026.175.023.334-.008.478a.769.769 0 0 1-.218.385l-1.81 1.837c.528.9 1.188 1.744 1.98 2.531A13.79 13.79 0 0 0 9.97 12.75l1.773-1.762a1.06 1.06 0 0 1 .443-.254c.182-.056.361-.072.537-.046l2.603.524c.176.038.32.122.434.253.113.132.17.285.17.46v3.037a.77.77 0 0 1-.792.787Z" fill="#fff"/></svg>