<svg width="25" height="24" fill="none" xmlns="http://www.w3.org/2000/svg"><path d="M7.976 2h8.45c3.219 0 5.834 2.6 5.834 5.8v8.4a5.782 5.782 0 0 1-1.709 4.101A5.852 5.852 0 0 1 16.426 22h-8.45c-3.219 0-5.834-2.6-5.834-5.8V7.8c0-1.538.615-3.014 1.709-4.101A5.852 5.852 0 0 1 7.976 2Zm-.2 2c-.961 0-1.882.38-2.562 1.054A3.59 3.59 0 0 0 4.154 7.6v8.8c0 1.99 1.62 3.6 3.621 3.6h8.852c.96 0 1.881-.38 2.56-1.054a3.59 3.59 0 0 0 1.061-2.546V7.6c0-1.99-1.62-3.6-3.621-3.6H7.775Zm9.706 1.5c.333 0 .653.132.889.366a1.246 1.246 0 0 1 0 1.768 1.261 1.261 0 0 1-1.778 0 1.246 1.246 0 0 1 0-1.768c.236-.234.555-.366.889-.366ZM12.2 7c1.334 0 2.613.527 3.556 1.464A4.985 4.985 0 0 1 17.23 12c0 1.326-.53 2.598-1.473 3.536A5.044 5.044 0 0 1 12.201 17a5.045 5.045 0 0 1-3.556-1.464A4.985 4.985 0 0 1 7.172 12c0-1.326.53-2.598 1.473-3.536A5.045 5.045 0 0 1 12.2 7Zm0 2c-.8 0-1.568.316-2.134.879a2.991 2.991 0 0 0 0 4.242 3.027 3.027 0 0 0 4.268 0 2.991 2.991 0 0 0 0-4.242A3.027 3.027 0 0 0 12.2 9Z" fill="#fff"/></svg>