<svg width="12" height="13" fill="none" xmlns="http://www.w3.org/2000/svg"><path d="M10.5 1.278H8.7V.32a.33.33 0 0 0-.088-.226A.291.291 0 0 0 8.4 0a.291.291 0 0 0-.212.094A.33.33 0 0 0 8.1.32v.958H3.9V.32a.33.33 0 0 0-.088-.226A.291.291 0 0 0 3.6 0a.291.291 0 0 0-.212.094A.33.33 0 0 0 3.3.32v.958H1.5c-.398 0-.779.17-1.06.469-.281.3-.44.705-.44 1.13v8.308c0 .423.159.83.44 1.13.281.299.662.467 1.06.468h9c.398 0 .78-.17 1.06-.469.281-.3.44-.706.44-1.13V2.877c0-.424-.159-.83-.44-1.13a1.456 1.456 0 0 0-1.06-.468Zm.9 9.907a.991.991 0 0 1-.264.678.873.873 0 0 1-.636.28h-9a.873.873 0 0 1-.636-.28.991.991 0 0 1-.264-.678V5.752h10.8v5.433Zm0-6.072H.6V2.876c0-.53.402-.959.9-.959h1.8v.96a.33.33 0 0 0 .088.225c.056.06.132.094.212.094.08 0 .156-.034.212-.094a.33.33 0 0 0 .088-.226v-.959h4.2v.96a.33.33 0 0 0 .088.225c.056.06.132.094.212.094.08 0 .156-.034.212-.094a.33.33 0 0 0 .088-.226v-.959h1.8c.239 0 .468.101.636.281.17.18.264.424.264.678v2.237Z" fill="#000"/></svg>