<svg width="8" height="11" fill="none" xmlns="http://www.w3.org/2000/svg"><path d="M4 5.605c.275 0 .51-.11.707-.33.195-.219.293-.483.293-.79a1.15 1.15 0 0 0-.293-.793A.915.915 0 0 0 4 3.363c-.275 0-.51.11-.706.33-.196.219-.294.483-.294.791 0 .308.098.572.294.792.196.22.431.33.706.33ZM4 11a.588.588 0 0 1-.375-.154C2.408 9.64 1.5 8.522.9 7.49.3 6.458 0 5.493 0 4.596 0 3.195.402 2.08 1.206 1.247 2.01.416 2.942 0 4 0s1.99.416 2.793 1.247C7.598 2.08 8 3.195 8 4.597c0 .896-.3 1.86-.9 2.893-.6 1.032-1.508 2.15-2.725 3.356A.588.588 0 0 1 4 11Z" fill="#4B4B4B"/></svg>